PathFileType	4	(X/Y/Z)	57_1_42_p0_0-135.trc
DataRate	CameraRate	NumFrames	NumMarkers	Units	OrigDataRate	OrigDataStartFrame	OrigNumFrames
41.0	41.0	7	27	m	41.0	51	136
Frame#	Time	RHip			RKnee			RAnkle			RBigToe			RSmallToe			RHeel			LHip			LKnee			LAnkle			LBigToe			LSmallToe			LHeel			Neck			Head			Nose			RShoulder			RElbow			RWrist			RThumb			RIndex			RPinky			LShoulder			LElbow			LWrist			LThumb			LIndex			LPinky			
		X1	Y1	Z1	X2	Y2	Z2	X3	Y3	Z3	X4	Y4	Z4	X5	Y5	Z5	X6	Y6	Z6	X7	Y7	Z7	X8	Y8	Z8	X9	Y9	Z9	X10	Y10	Z10	X11	Y11	Z11	X12	Y12	Z12	X13	Y13	Z13	X14	Y14	Z14	X15	Y15	Z15	X16	Y16	Z16	X17	Y17	Z17	X18	Y18	Z18	X19	Y19	Z19	X20	Y20	Z20	X21	Y21	Z21	X22	Y22	Z22	X23	Y23	Z23	X24	Y24	Z24	X25	Y25	Z25	X26	Y26	Z26	X27	Y27	Z27	
51	1.2439024390243902	0.25833390342215523	0.5690745613460827	0.9336224721519085	0.2907928970460641	0.7385737521607719	1.3797782227551352	0.30887074269745207	0.8864006350762683	1.7656193019275241	0.2638212048371299	0.7405995183315717	1.8194025214752356	0.3316558995991641	0.7196186908167765	1.7950009290506441	0.28301138780039664	0.9462312975144832	1.7975294253020933	0.07318860677222297	0.5369016554433252	0.9557161447545613	0.06652116297247869	0.7257874116875797	1.38608388560885	0.0898434871651769	0.8811308490238029	1.7767395197282352	0.10654166971291577	0.7241382383465729	1.8227868442133415	0.04323754563791091	0.7476788335376382	1.8216672010023323	0.10360855385672618	0.9502619035689694	1.8111110570566864	0.154772059508481	0.3697209936758719	0.42462602780768627	0.1595405774699749	0.28055496434919885	0.1986823975117849	0.1805049239629156	0.24035435966855742	0.33726662020077713	0.28400306223850436	0.4114600118975448	0.5022558203844	0.32042247981626204	0.46030982657980646	0.7674961694074963	0.2006206219406635	0.4508688737053159	0.9830771449910195	0.1352766069579865	0.4432566517594477	1.0580934407523785	0.13181506424702227	0.44647602171947803	1.0668079654577958	0.13764233035826	0.44982313968634635	1.0783659470413935	0.004522574351528511	0.4377350606487536	0.5097646819609927	-0.022034778045784117	0.43760582600098075	0.7648180936389357	0.08176500694608996	0.41849521849202465	0.970737025288372	0.16079807739604146	0.399214079443547	1.0308310469766198	0.15686144343792832	0.43470604177369937	1.071572006079992	0.12754509548376486	0.4458705524586971	1.070839635991173
52	1.2682926829268293	0.25874762704334775	0.5689432008168966	0.9378024922732043	0.2907723415661343	0.7387121698274263	1.3799682747889375	0.30881096805249963	0.8864431524672922	1.7657705619567279	0.2624762559279096	0.7376010082079894	1.814432724452007	0.3315916668987736	0.719574741941267	1.7950124920291841	0.28298054023307967	0.9460396476090273	1.797573843030272	0.07320011540929879	0.5371476853143977	0.9555951744472155	0.06638214921441804	0.7258654756567515	1.3861155988338434	0.08975703242641318	0.88124517237852	1.776905187656006	0.1065227909740426	0.7237083215996047	1.8226962661563215	0.04324202287062185	0.747865745463577	1.821755410578971	0.10350430342035993	0.9502876987813716	1.8112266692453614	0.1547707157698772	0.3696764550216521	0.42460416224312647	0.15526165893213784	0.27943202071722106	0.19924872335043087	0.1765819225903111	0.24012845989360923	0.33762826441751637	0.2840801950866855	0.41128827554710656	0.5021749659116391	0.3204885992424004	0.4605113025738215	0.7674366100823735	0.20058762176112416	0.4509060113209451	0.9830574365436268	0.13530091961963017	0.4433473735910615	1.0581654677192769	0.13174331318683968	0.4463280373225283	1.0667198363155104	0.1375756143572191	0.44986091667027184	1.0784294675575534	0.004608500790940039	0.4380033496820714	0.5097433803162612	-0.02211027680092808	0.4372492622510815	0.7646601697745272	0.081707416508705	0.41840477537871684	0.9707168433207669	0.15574947741142486	0.3955558285643574	1.0274504490081742	0.1530874311337292	0.42338014422438897	1.0678322518759638	0.12720876605976583	0.44585489402579176	1.0676030793174942
53	1.2926829268292683	0.25851075711797333	0.5700645344375816	0.9413961671665216	0.2901732389875756	0.7401380454866064	1.3841935173947852	0.3088210887808182	0.8863566815585338	1.7658007532094704	0.26369461581228176	0.7403061508840897	1.8193482099896634	0.32693174279476483	0.7047215956646623	1.7914033788374966	0.28303356069748126	0.9459276166644148	1.7975959621782198	0.07342156088196092	0.5406668513359091	0.9633914553198104	0.06745260709330486	0.7287994090804115	1.3910338413329086	0.08975764150449823	0.8806985425404652	1.7769649941414503	0.1064719188994493	0.7234787357201515	1.8226517929940844	0.043202092153607104	0.7478508526789637	1.821782277765878	0.10267397692483304	0.9517892123504588	1.816037976063036	0.15478644576163875	0.36976996139830093	0.42458118654583304	0.15148628229217007	0.29133014629563586	0.19647508434809324	0.17242488933910427	0.24006882217039288	0.33792388010483526	0.2880811053864338	0.42321789667877563	0.5003144680677213	0.3202194287179261	0.46083685524388623	0.7634981425311017	0.20044258451099697	0.45065908379127745	0.9830014417342569	0.1349676027538786	0.444242360289753	1.0615826517921987	0.13189549194795974	0.4458701029394545	1.0668288943839757	0.13329035384522606	0.4480995312461182	1.0748703601512128	0.0046406774621496165	0.4381105682394649	0.5097061517566442	-0.023130967637116626	0.4343064857332234	0.756978811870287	0.08177097737600882	0.41807437747089415	0.9705935492301455	0.15623878993773538	0.39887744970109446	1.0346033653603235	0.1531040827526686	0.42330612090992	1.0678101761297856	0.12704359078829675	0.4456976830552015	1.0672215424336735
54	1.3170731707317074	0.2630510497302022	0.5704645582027583	0.9411899281197305	0.2907177595768221	0.738563860937544	1.3799690268160674	0.30871220193873916	0.88625062406859	1.765761549417866	0.2581072559527168	0.7356510568623597	1.814211573771844	0.3268390650958123	0.7042808349516569	1.791449585927766	0.28302603147462563	0.9459990816243377	1.7976115160426918	0.07281632491038822	0.5397031534015647	0.9662488541258409	0.06635043746758625	0.7256046417430424	1.390056196709029	0.08958628604380917	0.8808704288721808	1.7768238703331982	0.10048794015321463	0.6938557227057386	1.8144244063957227	0.04036261804648001	0.7311786366120939	1.8170167365574161	0.10227596572376542	0.9521315259255402	1.8162250064451357	0.15472703130170556	0.36998737098865553	0.4245705954514993	0.1511660514988836	0.2918389509563637	0.1962012087746301	0.16835759403854159	0.25156568259602924	0.33581667980825997	0.284275751786665	0.4112842363940447	0.502132717589325	0.32032627849308204	0.4607335088555746	0.7634885104207835	0.1966600000071979	0.46401316040784846	0.9836352157066626	0.13101928686180053	0.42971571299417055	1.0569526485286	0.13165737226248056	0.4460227169936963	1.0667026888790019	0.13315100904793234	0.4486724866708827	1.0749400023507234	0.007483016081263883	0.45095032548473885	0.5077232730438118	-0.023438675348270273	0.43569767430548517	0.7603838326205222	0.08168170655485359	0.4186613631053927	0.9707019391937456	0.1607432455123174	0.4001649678152431	1.0344608491037819	0.15328012564358665	0.4237008524386432	1.0678096271545239	0.12699772980464355	0.4459290261732917	1.0670366483829703
55	1.3414634146341464	0.26302873924031545	0.5706209350002884	0.9411906818020732	0.2906847566774023	0.7386331776864247	1.379700645401555	0.30945894819412145	0.8841780080925341	1.761130404296526	0.25802138100533384	0.7358489394770987	1.8140909559783451	0.3231606053351439	0.7207746823267364	1.7960107630073865	0.2826449397999741	0.947039808093852	1.7939215996714026	0.07393328436298267	0.5408994682715326	0.9674434073873938	0.0664078122632014	0.7254852652981675	1.389965326199532	0.0895634732742452	0.880665616784835	1.7769179186339876	0.10349157533855327	0.7086859526658724	1.8184321769772096	0.04306985170871898	0.7470776304615412	1.8212713585786782	0.1023425030454112	0.9526817673358908	1.8163884558683525	0.15462727790166061	0.36993740881005743	0.42462214413248534	0.14697203417577606	0.2905650265674325	0.1968019014741204	0.16113703182500075	0.2518885264632688	0.3362851102907442	0.28423520325383766	0.4108421298995043	0.50217442608064	0.32033025051429054	0.4606445856592659	0.7634710586657629	0.20047820494406793	0.4507408745108208	0.9830146198534719	0.13406045638392414	0.4419362387004905	1.05734407597033	0.1276497138120196	0.4588583803475017	1.0676948668561976	0.1373219451402728	0.44989870323216463	1.0782260760849653	0.011604785626515412	0.4519685318404425	0.5073567125897445	-0.027377284585259322	0.44810729354329426	0.7640133836252063	0.08173149949338282	0.4184792799480934	0.9706921105920571	0.15977034339411011	0.39698742915924917	1.0307200661089135	0.15310611694309764	0.42306471436898535	1.0677545763466187	0.12699292010156532	0.4461337157543764	1.0671841649763736
56	1.3658536585365855	0.2630693173524367	0.5704991685753851	0.941239116846257	0.2906567666705706	0.7385054703876746	1.3797524905318865	0.3094215124589496	0.8842405869808444	1.76113192471803	0.2580761656221059	0.7361453213780421	1.8141591920577618	0.3235143594918115	0.7218073429466066	1.7961077484304735	0.2829861891708064	0.9459468715323782	1.7974606698129902	0.07380631363564384	0.5410354159384749	0.9674897564604337	0.06170685181427559	0.7243963258340934	1.3862031830575539	0.0896211344740809	0.8802415023981254	1.7768606466460737	0.10758725130003285	0.6932285920604552	1.8137684058118455	0.04762853721362444	0.7313667883234011	1.8165570850052635	0.10230011449019645	0.9517475653221404	1.8161987937522552	0.15060609323648896	0.3698822518395976	0.42490720096279305	0.1397248848452855	0.2786430700494571	0.2002264443332853	0.153085330122841	0.263638807769759	0.3345326289801489	0.2917271859650767	0.39860314675680103	0.5032911232514414	0.32047752389782797	0.4607738553507804	0.7634823579693377	0.2005436025662511	0.4507024626829664	0.983063172993292	0.13429267199124356	0.4419084484360479	1.0576173399566773	0.13214956559575614	0.4597404952879111	1.071284262130946	0.13750460702993494	0.45015521238667344	1.0785040391701337	0.0074475419243028055	0.45129412164715793	0.5078006156926799	-0.023004313818284102	0.4357510421706282	0.7644187130732853	0.08178134448764053	0.4186795787596037	0.9707541510076326	0.1609335152780783	0.3992771141658327	1.0343084309616455	0.15768342347068867	0.4244305831111933	1.0710253359045308	0.12626975472021656	0.44378850321218244	1.063582933300423
57	1.3902439024390243	0.26305068065403403	0.5704998270046115	0.9411804526693124	0.29064871862900415	0.7385472847037386	1.3797771818206106	0.3090302243154683	0.8849161562811645	1.757165887124199	0.25381829691662505	0.7217980838588437	1.8103980447423291	0.3187055005192865	0.7067297677405766	1.7924422772431026	0.28269656741772337	0.9468511684867691	1.7938754226281635	0.07319704057073118	0.5384545735286895	0.9630953475305847	0.061766020183454014	0.7242277665517941	1.3861514509665567	0.09066351047665507	0.8833500217566997	1.7821380860597622	0.10351100892608882	0.7087195815422012	1.8184388085592582	0.0430396794672387	0.7473958676502518	1.8213547044111706	0.10440666073511927	0.9535728165711467	1.8156639142262063	0.1466594323798962	0.38206989628631044	0.423163243534794	0.13926652590024466	0.27718095709840646	0.19710199410635143	0.14884775260408745	0.2754863426708721	0.33247088586688	0.2886157223360271	0.4118962025912428	0.5018144537087503	0.3205297639450649	0.4610485112781499	0.7634373753908817	0.20061873515422074	0.4508330559830487	0.9831024248344058	0.13440342219299808	0.44254709029572986	1.0575501881700085	0.13223180742013219	0.46041024949434023	1.0713718394173484	0.13755701019884795	0.45014298472632197	1.0784896519150546	0.0028529840275534637	0.4640252649349288	0.5063652058230801	-0.023088731267657214	0.4358454655412098	0.764416516789428	0.08473978220349541	0.4304511899756866	0.9707090972942269	0.16042230479361694	0.39634990645758666	1.0304263940566731	0.15745792285377974	0.4240391248892841	1.0672858928718116	0.1263318074242833	0.44386607409318996	1.0632744044909643
